<svg aria-hidden="true" style="width:0;height:0;position:absolute;overflow:hidden" xmlns="http://www.w3.org/2000/svg"><defs><symbol id="search-icon" viewBox="0 0 32 32"><path fill="#939393" style="fill:var(--color1,#939393)" d="M4.024 4.024C6.619 1.429 10.069 0 13.739 0s7.12 1.429 9.715 4.024a13.649 13.649 0 0 1 4.024 9.715 13.64 13.64 0 0 1-3.383 9.029l7.63 7.63a.94.94 0 0 1-1.327 1.327l-7.63-7.63a13.635 13.635 0 0 1-9.029 3.383c-3.67 0-7.12-1.429-9.715-4.024S0 17.409 0 13.739s1.429-7.12 4.024-9.715zm1.327 18.103c4.625 4.625 12.15 4.625 16.775 0s4.625-12.15 0-16.775c-2.313-2.313-5.35-3.469-8.388-3.469S7.663 3.04 5.35 5.352c-4.625 4.625-4.625 12.15 0 16.775z"/></symbol><symbol id="icon-EVENT-BOOSTER-LOGO" viewBox="0 0 64 32"><path fill="#fff" style="fill:var(--color1,#fff)" d="M55.702 10.968V2.773H51.53V0h8.905v2.773h-4.17v8.195zM38.794 10.964V0h.602l7.508 7.453V0h.571v10.968zM26.018 0h8.055v2.773h-5.167v1.386h4.289V6.79h-4.289v1.397h5.163v2.78h-8.052zM11.897 0h10.128l-5.064 10.968zm5.063 9.604L21.137.571H12.79zM0 0h8.032v2.773H2.884v1.386h4.275V6.79H2.884v1.397h5.148v2.78H0zM64.199 29.566h-8.478V18.464h4.294q1.381 0 2.251.496c.56.31 1.012.755 1.322 1.291l.009.016c.299.515.475 1.134.475 1.794v.042-.002.038c0 .829-.286 1.591-.765 2.194l.006-.007a3.584 3.584 0 0 1-1.896 1.295l-.025.006zm-7.891-10.128v5.726h4.072zm0 9.538h6.782l-2.314-3.237-.491.016h-3.978zm.412-9.922 4.309 6.061a3.026 3.026 0 0 0 1.754-1.063l.004-.006a2.955 2.955 0 0 0 .699-1.913v-.034.002-.028c0-.578-.159-1.118-.436-1.58l.008.014a2.84 2.84 0 0 0-1.188-1.094l-.017-.007a3.996 3.996 0 0 0-1.829-.349h.008zM44.588 18.464h7.938v2.808h-5.088v1.397h4.227v2.663h-4.227v1.42h5.088v2.808h-7.938zM37.09 29.714v-8.411h-4.062v-2.846h8.678v2.846h-4.062v8.404zM22.814 28.649q-1.222-1.063-1.222-3.19h2.553c-.01.59.175 1.048.533 1.352s.873.464 1.533.464a2.628 2.628 0 0 0 1.301-.271l-.015.007a.874.874 0 0 0 .47-.775l-.001-.034v.002-.002a.681.681 0 0 0-.474-.648l-.005-.001a4.348 4.348 0 0 0-.918-.284l-.028-.005-.58-.103a12.401 12.401 0 0 1-2.169-.598l.086.029a3.634 3.634 0 0 1-1.467-1.005l-.003-.004q-.597-.681-.595-1.799l-.001-.091c0-.682.224-1.311.603-1.818l-.006.008a3.589 3.589 0 0 1 1.564-1.163l.025-.008a5.778 5.778 0 0 1 2.103-.388h.07-.004l.125-.001c.854 0 1.662.198 2.38.55l-.032-.014c.7.361 1.26.909 1.626 1.578l.01.02c.175.283.301.616.358.971l.002.015c.038.275.061.595.063.92v.002h-2.551c0-.559-.15-.969-.454-1.233s-.772-.396-1.409-.396a2.248 2.248 0 0 0-1.201.27l.012-.006a.806.806 0 0 0-.423.708v.006c0 .332.187.574.564.73.399.162.876.307 1.367.409l.056.01c.883.164 1.622.349 2.345.573l-.145-.039c.548.183 1.01.496 1.368.904l.003.004q.578.651.58 1.832l.001.069c0 .7-.236 1.345-.633 1.859l.005-.007a4.01 4.01 0 0 1-1.625 1.225l-.027.01a5.626 5.626 0 0 1-2.169.426h-.049.003q-2.27-.005-3.499-1.069zM20.142 24.172q-.918-2.52-3.784-2.52h-.602v10.344h.602q2.216 0 3.269-1.718.889-1.467.889-3.732l.001-.112c0-.81-.137-1.588-.39-2.313l.015.049zM9.836 24.284q.938 2.542 3.854 2.544h.613V16.369h-.613q-2.254 0-3.328 1.746-.905 1.482-.903 3.773l-.001.117c0 .816.138 1.599.393 2.328l-.015-.049zM4.842 18.509a3.772 3.772 0 0 1 1.709.324l-.024-.01c.482.236.874.59 1.149 1.026l.007.012c.259.406.413.901.413 1.431l-.001.056v-.003.02c0 .522-.154 1.009-.418 1.416l.006-.01c-.285.438-.67.788-1.124 1.024l-.016.008a3.19 3.19 0 0 1 1.455 1.041l.005.007a2.57 2.57 0 0 1 .594 1.649v.021-.001.025c0 .549-.158 1.06-.431 1.492l.007-.011a3.077 3.077 0 0 1-1.116 1.071l-.015.008a2.919 2.919 0 0 1-.766.281l-.02.004c-.311.061-.67.096-1.036.096l-.126-.001H5.1.157V18.51z"/></symbol><symbol id="icon-EVENT-BOOSTER-LOGO-COLOR" viewBox="0 0 64 32"><path fill="#dc56c5" style="fill:var(--color1,#dc56c5)" d="M55.702 10.968V2.773H51.53V0h8.905v2.773h-4.17v8.195zM38.794 10.964V0h.602l7.508 7.453V0h.571v10.968zM26.018 0h8.055v2.773h-5.167v1.386h4.289V6.79h-4.289v1.397h5.163v2.78h-8.052zM11.897 0h10.128l-5.064 10.968zm5.063 9.604L21.137.571H12.79zM0 0h8.032v2.773H2.884v1.386h4.275V6.79H2.884v1.397h5.148v2.78H0zM64.199 29.566h-8.478V18.464h4.294q1.381 0 2.251.496c.56.31 1.012.755 1.322 1.291l.009.016c.299.515.475 1.134.475 1.794v.042-.002.038c0 .829-.286 1.591-.765 2.194l.006-.007a3.584 3.584 0 0 1-1.896 1.295l-.025.006zm-7.891-10.128v5.726h4.072zm0 9.538h6.782l-2.314-3.237-.491.016h-3.978zm.412-9.922 4.309 6.061a3.026 3.026 0 0 0 1.754-1.063l.004-.006a2.955 2.955 0 0 0 .699-1.913v-.034.002-.028c0-.578-.159-1.118-.436-1.58l.008.014a2.84 2.84 0 0 0-1.188-1.094l-.017-.007a3.996 3.996 0 0 0-1.829-.349h.008zM44.588 18.464h7.938v2.808h-5.088v1.397h4.227v2.663h-4.227v1.42h5.088v2.808h-7.938zM37.09 29.714v-8.411h-4.062v-2.846h8.678v2.846h-4.062v8.404zM22.814 28.649q-1.222-1.063-1.222-3.19h2.553c-.01.59.175 1.048.533 1.352s.873.464 1.533.464a2.628 2.628 0 0 0 1.301-.271l-.015.007a.874.874 0 0 0 .47-.775l-.001-.034v.002-.002a.681.681 0 0 0-.474-.648l-.005-.001a4.348 4.348 0 0 0-.918-.284l-.028-.005-.58-.103a12.401 12.401 0 0 1-2.169-.598l.086.029a3.634 3.634 0 0 1-1.467-1.005l-.003-.004q-.597-.681-.595-1.799l-.001-.091c0-.682.224-1.311.603-1.818l-.006.008a3.589 3.589 0 0 1 1.564-1.163l.025-.008a5.778 5.778 0 0 1 2.103-.388h.07-.004l.125-.001c.854 0 1.662.198 2.38.55l-.032-.014c.7.361 1.26.909 1.626 1.578l.01.02c.175.283.301.616.358.971l.002.015c.038.275.061.595.063.92v.002h-2.551c0-.559-.15-.969-.454-1.233s-.772-.396-1.409-.396a2.248 2.248 0 0 0-1.201.27l.012-.006a.806.806 0 0 0-.423.708v.006c0 .332.187.574.564.73.399.162.876.307 1.367.409l.056.01c.883.164 1.622.349 2.345.573l-.145-.039c.548.183 1.01.496 1.368.904l.003.004q.578.651.58 1.832l.001.069c0 .7-.236 1.345-.633 1.859l.005-.007a4.01 4.01 0 0 1-1.625 1.225l-.027.01a5.626 5.626 0 0 1-2.169.426h-.049.003q-2.27-.005-3.499-1.069zM20.142 24.172q-.918-2.52-3.784-2.52h-.602v10.344h.602q2.216 0 3.269-1.718.889-1.467.889-3.732l.001-.112c0-.81-.137-1.588-.39-2.313l.015.049zM9.836 24.284q.938 2.542 3.854 2.544h.613V16.369h-.613q-2.254 0-3.328 1.746-.905 1.482-.903 3.773l-.001.117c0 .816.138 1.599.393 2.328l-.015-.049zM4.842 18.509a3.772 3.772 0 0 1 1.709.324l-.024-.01c.482.236.874.59 1.149 1.026l.007.012c.259.406.413.901.413 1.431l-.001.056v-.003.02c0 .522-.154 1.009-.418 1.416l.006-.01c-.285.438-.67.788-1.124 1.024l-.016.008a3.19 3.19 0 0 1 1.455 1.041l.005.007a2.57 2.57 0 0 1 .594 1.649v.021-.001.025c0 .549-.158 1.06-.431 1.492l.007-.011a3.077 3.077 0 0 1-1.116 1.071l-.015.008a2.919 2.919 0 0 1-.766.281l-.02.004c-.311.061-.67.096-1.036.096l-.126-.001H5.1.157V18.51z"/></symbol><symbol id="icon-pin-tablet-desktop" viewBox="0 0 22 32"><path fill="#fff" style="fill:var(--color1,#fff)" d="M11.2 0C5.024 0 0 4.99 0 11.123 0 18.832 11.211 32 11.211 32S22.4 18.453 22.4 11.123C22.4 4.99 17.376 0 11.2 0zm3.379 14.38c-.932.925-2.155 1.388-3.379 1.388s-2.448-.463-3.379-1.388a4.729 4.729 0 0 1 0-6.712c.902-.896 2.103-1.39 3.379-1.39s2.477.494 3.379 1.39a4.729 4.729 0 0 1 0 6.712z"/></symbol><symbol id="icon-pin-mobile" viewBox="0 0 21 32"><path fill="#fff" style="fill:var(--color1,#fff)" d="M10.667 0C4.785 0 0 4.99 0 11.123 0 18.832 10.677 32 10.677 32s10.656-13.547 10.656-20.877C21.333 4.99 16.548 0 10.666 0zm3.218 14.38c-.887.925-2.053 1.388-3.218 1.388s-2.331-.463-3.218-1.388c-1.775-1.85-1.775-4.861 0-6.712.859-.896 2.002-1.39 3.218-1.39s2.359.494 3.218 1.39c1.775 1.851 1.775 4.861 0 6.712z"/></symbol><symbol id="icon-close" viewBox="0 0 32 32"><path fill="#4c00fe" style="fill:var(--color1,#4c00fe)" d="M1.646 32a1.646 1.646 0 0 1-1.163-2.811L29.19.482a1.646 1.646 0 1 1 2.328 2.329L2.811 31.517A1.65 1.65 0 0 1 1.646 32z"/><path fill="#4c00fe" style="fill:var(--color1,#4c00fe)" d="M30.355 32c-.421 0-.843-.16-1.163-.483L.483 2.811A1.647 1.647 0 0 1 2.812.482l28.707 28.707A1.646 1.646 0 0 1 30.356 32z"/></symbol><symbol id="icon-ticket" viewBox="0 0 45 32"><path d="M5.02 1.569H0v30.118h5.02V1.569zM17.645 1.569h-5.02v30.118h5.02V1.569zM25.25 1.569h-5.019v30.118h5.019V1.569zM45.177 1.569h-7.453v30.118h7.453V1.569zM10.039 1.569H7.605v30.118h2.434V1.569zM30.118 1.569h-2.434v30.118h2.434V1.569zM35.137 1.569h-2.434v30.118h2.434V1.569z"/></symbol></defs></svg>