<svg aria-hidden="true" style="position: absolute; width: 0; height: 0; overflow: hidden;" version="1.1" xmlns="http://www.w3.org/2000/svg" xmlns:xlink="http://www.w3.org/1999/xlink">
<defs>
<symbol id="search-icon" viewBox="0 0 32 32">
<path fill="#939393" style="fill: var(--color1, #939393)" d="M4.024 4.024c2.595-2.595 6.045-4.024 9.715-4.024s7.12 1.429 9.715 4.024c2.595 2.595 4.024 6.045 4.024 9.715 0 3.355-1.195 6.526-3.383 9.029l7.63 7.63c0.366 0.366 0.366 0.961 0 1.327-0.183 0.183-0.423 0.275-0.664 0.275s-0.48-0.092-0.663-0.275l-7.63-7.63c-2.502 2.188-5.673 3.383-9.029 3.383-3.67 0-7.12-1.429-9.715-4.024s-4.024-6.045-4.024-9.715 1.429-7.12 4.024-9.715zM5.351 22.127c4.625 4.625 12.15 4.625 16.775 0s4.625-12.15 0-16.775c-2.313-2.313-5.35-3.469-8.388-3.469s-6.075 1.157-8.388 3.469c-4.625 4.625-4.625 12.15 0 16.775z"></path>
</symbol>
<symbol id="icon-EVENT-BOOSTER-LOGO" viewBox="0 0 64 32">
<path fill="#fff" style="fill: var(--color1, #fff)" d="M55.702 10.968v-8.195h-4.172v-2.773h8.905v2.773h-4.17v8.195z"></path>
<path fill="#fff" style="fill: var(--color1, #fff)" d="M38.794 10.964v-10.964h0.602l7.508 7.453v-7.453h0.571v10.968z"></path>
<path fill="#fff" style="fill: var(--color1, #fff)" d="M26.018 0h8.055v2.773h-5.167v1.386h4.289v2.631h-4.289v1.397h5.163v2.78h-8.052z"></path>
<path fill="#fff" style="fill: var(--color1, #fff)" d="M11.897 0h10.128l-5.064 10.968zM16.96 9.604l4.177-9.033h-8.347z"></path>
<path fill="#fff" style="fill: var(--color1, #fff)" d="M0 0h8.032v2.773h-5.148v1.386h4.275v2.631h-4.275v1.397h5.148v2.78h-8.032z"></path>
<path fill="#fff" style="fill: var(--color1, #fff)" d="M64.199 29.566h-8.478v-11.102h4.294q1.381 0 2.251 0.496c0.56 0.31 1.012 0.755 1.322 1.291l0.009 0.016c0.299 0.515 0.475 1.134 0.475 1.794 0 0.014-0 0.028-0 0.042l0-0.002c0 0.011 0 0.025 0 0.038 0 0.829-0.286 1.591-0.765 2.194l0.006-0.007c-0.472 0.623-1.133 1.083-1.896 1.295l-0.025 0.006zM56.308 19.438v5.726h4.072zM56.308 28.976h6.782l-2.314-3.237-0.491 0.016h-3.978zM56.72 19.054l4.309 6.061c0.715-0.147 1.323-0.53 1.754-1.063l0.004-0.006c0.434-0.513 0.699-1.182 0.699-1.913 0-0.011-0-0.023-0-0.034v0.002c0-0.008 0-0.018 0-0.028 0-0.578-0.159-1.118-0.436-1.58l0.008 0.014c-0.287-0.477-0.698-0.855-1.188-1.094l-0.017-0.007c-0.487-0.223-1.056-0.353-1.655-0.353-0.058 0-0.116 0.001-0.174 0.004l0.008-0z"></path>
<path fill="#fff" style="fill: var(--color1, #fff)" d="M44.588 18.464h7.938v2.808h-5.088v1.397h4.227v2.663h-4.227v1.42h5.088v2.808h-7.938z"></path>
<path fill="#fff" style="fill: var(--color1, #fff)" d="M37.090 29.714v-8.411h-4.062v-2.846h8.678v2.846h-4.062v8.404z"></path>
<path fill="#fff" style="fill: var(--color1, #fff)" d="M22.814 28.649q-1.222-1.063-1.222-3.19h2.553c-0.010 0.59 0.175 1.048 0.533 1.352s0.873 0.464 1.533 0.464c0.039 0.002 0.084 0.003 0.13 0.003 0.421 0 0.818-0.099 1.171-0.274l-0.015 0.007c0.282-0.149 0.47-0.44 0.47-0.775 0-0.011-0-0.023-0.001-0.034l0 0.002c0-0.001 0-0.002 0-0.002 0-0.303-0.199-0.56-0.474-0.648l-0.005-0.001c-0.271-0.12-0.588-0.22-0.918-0.284l-0.028-0.005-0.58-0.103c-0.799-0.147-1.498-0.345-2.169-0.598l0.086 0.029c-0.585-0.219-1.079-0.564-1.467-1.005l-0.003-0.004q-0.597-0.681-0.595-1.799c-0.001-0.027-0.001-0.059-0.001-0.091 0-0.682 0.224-1.311 0.603-1.818l-0.006 0.008c0.406-0.524 0.944-0.928 1.564-1.163l0.025-0.008c0.624-0.246 1.347-0.388 2.103-0.388 0.023 0 0.046 0 0.070 0l-0.004-0c0.037-0.001 0.081-0.001 0.125-0.001 0.854 0 1.662 0.198 2.38 0.55l-0.032-0.014c0.7 0.361 1.26 0.909 1.626 1.578l0.010 0.020c0.175 0.283 0.301 0.616 0.358 0.971l0.002 0.015c0.038 0.275 0.061 0.595 0.063 0.92v0.002h-2.551c0-0.559-0.15-0.969-0.454-1.233s-0.772-0.396-1.409-0.396c-0.037-0.002-0.081-0.003-0.124-0.003-0.39 0-0.757 0.099-1.077 0.273l0.012-0.006c-0.254 0.139-0.423 0.404-0.423 0.708 0 0.002 0 0.004 0 0.006v-0c0 0.332 0.187 0.574 0.564 0.73 0.399 0.162 0.876 0.307 1.367 0.409l0.056 0.010c0.883 0.164 1.622 0.349 2.345 0.573l-0.145-0.039c0.548 0.183 1.010 0.496 1.368 0.904l0.003 0.004q0.578 0.651 0.58 1.832c0 0.021 0.001 0.045 0.001 0.069 0 0.7-0.236 1.345-0.633 1.859l0.005-0.007c-0.429 0.541-0.986 0.964-1.625 1.225l-0.027 0.010c-0.641 0.27-1.387 0.426-2.169 0.426-0.016 0-0.033-0-0.049-0l0.003 0q-2.27-0.005-3.499-1.069z"></path>
<path fill="#fff" style="fill: var(--color1, #fff)" d="M20.142 24.172q-0.918-2.52-3.784-2.52h-0.602v10.344h0.602q2.216 0 3.269-1.718 0.889-1.467 0.889-3.732c0.001-0.033 0.001-0.072 0.001-0.112 0-0.81-0.137-1.588-0.39-2.313l0.015 0.049z"></path>
<path fill="#fff" style="fill: var(--color1, #fff)" d="M9.836 24.284q0.938 2.542 3.854 2.544h0.613v-10.459h-0.613q-2.254 0-3.328 1.746-0.905 1.482-0.903 3.773c-0.001 0.035-0.001 0.076-0.001 0.117 0 0.816 0.138 1.599 0.393 2.328l-0.015-0.049z"></path>
<path fill="#fff" style="fill: var(--color1, #fff)" d="M4.842 18.509c0.049-0.002 0.107-0.004 0.165-0.004 0.55 0 1.072 0.117 1.544 0.328l-0.024-0.010c0.482 0.236 0.874 0.59 1.149 1.026l0.007 0.012c0.259 0.406 0.413 0.901 0.413 1.431 0 0.019-0 0.037-0.001 0.056l0-0.003c0 0.006 0 0.013 0 0.020 0 0.522-0.154 1.009-0.418 1.416l0.006-0.010c-0.285 0.438-0.67 0.788-1.124 1.024l-0.016 0.008c0.593 0.21 1.088 0.573 1.455 1.041l0.005 0.007c0.37 0.444 0.594 1.021 0.594 1.649 0 0.007-0 0.014-0 0.021v-0.001c0 0.007 0 0.016 0 0.025 0 0.549-0.158 1.060-0.431 1.492l0.007-0.011c-0.281 0.453-0.663 0.818-1.116 1.071l-0.015 0.008c-0.227 0.123-0.489 0.221-0.766 0.281l-0.020 0.004c-0.311 0.061-0.67 0.096-1.036 0.096-0.042 0-0.084-0-0.126-0.001l0.006 0h-4.943v-10.975z"></path>
</symbol>
<symbol id="icon-pin-tablet-desktop" viewBox="0 0 22 32">
<path fill="#fff" style="fill: var(--color1, #fff)" d="M11.2 0c-6.176 0-11.2 4.99-11.2 11.123 0 7.709 11.211 20.877 11.211 20.877s11.189-13.547 11.189-20.877c0-6.133-5.024-11.123-11.2-11.123zM14.579 14.38c-0.932 0.925-2.155 1.388-3.379 1.388s-2.448-0.463-3.379-1.388c-1.863-1.85-1.863-4.861 0-6.712 0.902-0.896 2.103-1.39 3.379-1.39s2.477 0.494 3.379 1.39c1.863 1.851 1.863 4.862 0 6.712z"></path>
</symbol>
<symbol id="icon-pin-mobile" viewBox="0 0 21 32">
<path fill="#fff" style="fill: var(--color1, #fff)" d="M10.667 0c-5.882 0-10.667 4.99-10.667 11.123 0 7.709 10.677 20.877 10.677 20.877s10.656-13.547 10.656-20.877c0-6.133-4.785-11.123-10.667-11.123zM13.885 14.38c-0.887 0.925-2.053 1.388-3.218 1.388s-2.331-0.463-3.218-1.388c-1.775-1.85-1.775-4.861 0-6.712 0.859-0.896 2.002-1.39 3.218-1.39s2.359 0.494 3.218 1.39c1.775 1.851 1.775 4.861 0 6.712z"></path>
</symbol>
<symbol id="icon-close" viewBox="0 0 32 32">
<path fill="#4c00fe" style="fill: var(--color1, #4c00fe)" d="M1.646 32c-0.422 0-0.843-0.16-1.163-0.483-0.643-0.643-0.643-1.685 0-2.328l28.707-28.707c0.643-0.643 1.685-0.643 2.328 0s0.643 1.685 0 2.329l-28.707 28.706c-0.323 0.321-0.744 0.483-1.165 0.483z"></path>
<path fill="#4c00fe" style="fill: var(--color1, #4c00fe)" d="M30.355 32c-0.421 0-0.843-0.16-1.163-0.483l-28.709-28.706c-0.643-0.643-0.643-1.686 0-2.329s1.685-0.643 2.329 0l28.707 28.707c0.643 0.643 0.643 1.685 0 2.328-0.323 0.321-0.744 0.483-1.163 0.483z"></path>
</symbol>
<symbol id="icon-ticket" viewBox="0 0 45 32">
<path d="M5.020 1.569h-5.020v30.118h5.020v-30.118z"></path>
<path d="M17.645 1.569h-5.020v30.118h5.020v-30.118z"></path>
<path d="M25.25 1.569h-5.019v30.118h5.019v-30.118z"></path>
<path d="M45.177 1.569h-7.453v30.118h7.453v-30.118z"></path>
<path d="M10.039 1.569h-2.434v30.118h2.434v-30.118z"></path>
<path d="M30.118 1.569h-2.434v30.118h2.434v-30.118z"></path>
<path d="M35.137 1.569h-2.434v30.118h2.434v-30.118z"></path>
</symbol>

</defs>
</svg>
