<svg width="28" height="20" viewBox="0 0 28 20" fill="none" xmlns="http://www.w3.org/2000/svg">
<path d="M3.07159 0.152344L0 0.152344L0 19.6531H3.07159L3.07159 0.152344Z" fill="#0E0E0E"/>
<path d="M10.7971 0.152344L7.72554 0.152344L7.72554 19.6531H10.7971L10.7971 0.152344Z" fill="#0E0E0E"/>
<path d="M15.4511 0.152344L12.3795 0.152344L12.3795 19.6531H15.4511L15.4511 0.152344Z" fill="#0E0E0E"/>
<path d="M27.6442 0.152344L23.0834 0.152344L23.0834 19.6531H27.6442L27.6442 0.152344Z" fill="#0E0E0E"/>
<path d="M6.14322 0.152344L4.65396 0.152344L4.65396 19.6531H6.14322L6.14322 0.152344Z" fill="#0E0E0E"/>
<path d="M18.4295 0.152344L16.9402 0.152344L16.9402 19.6531H18.4295L18.4295 0.152344Z" fill="#0E0E0E"/>
<path d="M21.5011 0.152344L20.0118 0.152344L20.0118 19.6531H21.5011L21.5011 0.152344Z" fill="#0E0E0E"/>
</svg>
