<?xml version="1.0" standalone="no"?>
<!DOCTYPE svg PUBLIC "-//W3C//DTD SVG 20010904//EN"
 "http://www.w3.org/TR/2001/REC-SVG-20010904/DTD/svg10.dtd">
<svg version="1.0" xmlns="http://www.w3.org/2000/svg"
 width="1110.000000pt" height="1110.000000pt" viewBox="0 0 1110.000000 1110.000000"
 preserveAspectRatio="xMidYMid meet">
<metadata>
Created by potrace 1.14, written by Peter Selinger 2001-2017
</metadata>
<g transform="translate(0.000000,1110.000000) scale(0.100000,-0.100000)"
fill="#000000" stroke="none">
<path d="M1490 5550 l0 -5550 4065 0 4065 0 0 1404 c0 1114 -3 1405 -12 1408
-7 2 -1180 3 -2606 3 l-2592 -1 2 705 3 706 2155 2 c1185 1 2157 2 2160 2 3 1
6 600 6 1331 l0 1330 -2163 0 -2163 0 2 702 3 702 2603 0 2602 0 0 1403 0
1403 -4065 0 -4065 0 0 -5550z"/>
</g>
</svg>
